<svg xmlns="http://www.w3.org/2000/svg" viewBox="0 0 921.23 107.25"><defs><style>.cls-1{fill:none;stroke:#fff;stroke-miterlimit:10;stroke-width:7px;}.cls-2{fill:#fff;}</style></defs><g id="Layer_2" data-name="Layer 2"><g id="Layer_2-2" data-name="Layer 2"><circle class="cls-1" cx="52.19" cy="53.65" r="30.69"/><circle class="cls-1" cx="52.19" cy="53.65" r="48.69"/><line class="cls-1" x1="52.19" y1="22.96" x2="52.19" y2="84.34"/><line class="cls-1" x1="21.5" y1="53.65" x2="52.19" y2="53.65"/><path class="cls-2" d="M186.23,1.5h37.05Q254,1.5,254,27.75q0,18.45-13.8,24.3,17.25,5.4,17.25,24.75,0,15.75-8.17,22.35t-23.78,6.6h-39.3ZM223,9.75H195.53V48.6h28.8q10.5,0,15.38-5t4.87-14.93q0-9.9-5.32-14.4T223,9.75Zm1.5,47H195.53V97.5h29.85q11,0,16.8-4.65T248,76.5Q248,56.7,224.48,56.7Z"/><path class="cls-2" d="M278.78,105.75V1.5h62.55V9.9H288.08V48.6h44.25v8.25H288.08V97.5h53.25v8.25Z"/><path class="cls-2" d="M361.58,105.75V1.5h18.3l43.65,96H427V1.5h9.15V105.75h-18L374.18,9.9h-3.3v95.85Z"/><path class="cls-2" d="M500.33,105.75H462.38V1.5h37.95q37.05,0,37.05,50.7Q537.38,105.75,500.33,105.75ZM527.78,52.2q0-42.3-27.45-42.3H471.68V97.5h28.65Q527.78,97.5,527.78,52.2Z"/><path class="cls-2" d="M547.73,105.75l30-104.25h21.75l29.85,104.25h-9.15L611.78,77h-46.5L557,105.75ZM584.48,9.6l-17,59.1h42L592.58,9.6Z"/><path class="cls-2" d="M646.13,105.75V1.5h18.3l43.65,96h3.45V1.5h9.15V105.75h-18L658.73,9.9h-3.3v95.85Z"/><path class="cls-2" d="M784.88,105.75h-38V1.5h38q37.05,0,37,50.7Q821.93,105.75,784.88,105.75ZM812.33,52.2q0-42.3-27.45-42.3H756.23V97.5h28.65Q812.33,97.5,812.33,52.2Z"/><path class="cls-2" d="M921.23,54.45q0,27.9-8.78,40.35t-32,12.45q-23.18,0-32-12.75t-8.77-40.27q0-27.52,8.85-40.88T880.43,0q23,0,31.87,13.27T921.23,54.45Zm-65.55,34Q862,98.86,880.5,98.85t24.83-10.2q6.3-10.2,6.3-34.13t-6.6-35q-6.6-11.1-24.6-11.1-18.6,0-25,12a42,42,0,0,0-4.73,14.1,127.12,127.12,0,0,0-1.27,19.65Q849.38,78,855.68,88.42Z"/></g></g></svg>